<mxfile host="app.diagrams.net" modified="2024-01-15T01:38:15.086Z" agent="Mozilla/5.0 (Windows NT 10.0; Win64; x64) AppleWebKit/537.36 (KHTML, like Gecko) Chrome/118.0.0.0 YaBrowser/23.11.0.0 Safari/537.36" etag="MYJMNWfv1T9yqnEFlfom" version="22.1.18" type="device">
  <diagram name="Страница — 1" id="yiZUteQFTGF1U3BzNhik">
    <mxGraphModel dx="1016" dy="558" grid="1" gridSize="10" guides="1" tooltips="1" connect="1" arrows="1" fold="1" page="1" pageScale="1" pageWidth="3300" pageHeight="4681" math="0" shadow="0">
      <root>
        <mxCell id="0" />
        <mxCell id="1" parent="0" />
        <mxCell id="-5gYeAMTgsqMbaTnVPdi-1" value="Lexer" style="rounded=0;whiteSpace=wrap;html=1;" vertex="1" parent="1">
          <mxGeometry x="300" y="240" width="140" height="50" as="geometry" />
        </mxCell>
        <mxCell id="-5gYeAMTgsqMbaTnVPdi-2" value="+ token: Token&lt;br&gt;+ lexema: Lexem" style="rounded=0;whiteSpace=wrap;html=1;align=left;spacingLeft=5;" vertex="1" parent="1">
          <mxGeometry x="300" y="290" width="140" height="60" as="geometry" />
        </mxCell>
        <mxCell id="-5gYeAMTgsqMbaTnVPdi-4" value="+ Lexer()&lt;br&gt;+ getLastLexem()&lt;br&gt;+ getLastToken()&lt;br&gt;+ getNextLexem()" style="rounded=0;whiteSpace=wrap;html=1;align=left;spacingLeft=5;" vertex="1" parent="1">
          <mxGeometry x="300" y="350" width="140" height="80" as="geometry" />
        </mxCell>
        <mxCell id="-5gYeAMTgsqMbaTnVPdi-5" value="Lexem" style="rounded=0;whiteSpace=wrap;html=1;" vertex="1" parent="1">
          <mxGeometry x="500" y="240" width="120" height="50" as="geometry" />
        </mxCell>
        <mxCell id="-5gYeAMTgsqMbaTnVPdi-6" value="Token" style="rounded=0;whiteSpace=wrap;html=1;" vertex="1" parent="1">
          <mxGeometry x="670" y="240" width="120" height="50" as="geometry" />
        </mxCell>
        <mxCell id="-5gYeAMTgsqMbaTnVPdi-7" value="+ str: String" style="rounded=0;whiteSpace=wrap;html=1;align=left;spacingLeft=5;" vertex="1" parent="1">
          <mxGeometry x="500" y="290" width="120" height="50" as="geometry" />
        </mxCell>
        <mxCell id="-5gYeAMTgsqMbaTnVPdi-9" value="+ Lexem()&lt;br&gt;+ toString()&lt;br&gt;&lt;div style=&quot;&quot;&gt;&lt;span style=&quot;background-color: initial;&quot;&gt;+ isEqual()&lt;/span&gt;&lt;/div&gt;" style="rounded=0;whiteSpace=wrap;html=1;align=left;spacingLeft=5;" vertex="1" parent="1">
          <mxGeometry x="500" y="340" width="120" height="70" as="geometry" />
        </mxCell>
        <mxCell id="-5gYeAMTgsqMbaTnVPdi-10" value="+ pattern: Token&amp;nbsp;" style="rounded=0;whiteSpace=wrap;html=1;align=left;spacingLeft=5;" vertex="1" parent="1">
          <mxGeometry x="670" y="290" width="120" height="50" as="geometry" />
        </mxCell>
        <mxCell id="-5gYeAMTgsqMbaTnVPdi-12" value="+ Token()&lt;br&gt;+ endOfMatch()&lt;br&gt;+ isEqual()" style="rounded=0;whiteSpace=wrap;html=1;align=left;spacingLeft=5;" vertex="1" parent="1">
          <mxGeometry x="670" y="340" width="120" height="60" as="geometry" />
        </mxCell>
        <mxCell id="-5gYeAMTgsqMbaTnVPdi-13" value="" style="endArrow=diamondThin;endFill=0;endSize=24;html=1;rounded=0;exitX=0.5;exitY=0;exitDx=0;exitDy=0;entryX=0.5;entryY=0;entryDx=0;entryDy=0;" edge="1" parent="1" source="-5gYeAMTgsqMbaTnVPdi-6" target="-5gYeAMTgsqMbaTnVPdi-1">
          <mxGeometry width="160" relative="1" as="geometry">
            <mxPoint x="620" y="450" as="sourcePoint" />
            <mxPoint x="780" y="450" as="targetPoint" />
            <Array as="points">
              <mxPoint x="730" y="170" />
              <mxPoint x="370" y="170" />
            </Array>
          </mxGeometry>
        </mxCell>
        <mxCell id="-5gYeAMTgsqMbaTnVPdi-14" value="" style="endArrow=diamondThin;endFill=0;endSize=24;html=1;rounded=0;entryX=0.72;entryY=0;entryDx=0;entryDy=0;exitX=0.5;exitY=0;exitDx=0;exitDy=0;entryPerimeter=0;" edge="1" parent="1" source="-5gYeAMTgsqMbaTnVPdi-5" target="-5gYeAMTgsqMbaTnVPdi-1">
          <mxGeometry width="160" relative="1" as="geometry">
            <mxPoint x="620" y="450" as="sourcePoint" />
            <mxPoint x="780" y="450" as="targetPoint" />
            <Array as="points">
              <mxPoint x="560" y="200" />
              <mxPoint x="400" y="200" />
            </Array>
          </mxGeometry>
        </mxCell>
      </root>
    </mxGraphModel>
  </diagram>
</mxfile>
